<svg width="40" height="40" viewBox="0 0 40 40" fill="none" xmlns="http://www.w3.org/2000/svg">
<path d="M0 20C0 8.95431 8.95431 0 20 0C31.0457 0 40 8.95431 40 20C40 31.0457 31.0457 40 20 40C8.95431 40 0 31.0457 0 20Z" fill="#ECECF0"/>
<g clip-path="url(#clip0_47_54)">
<path d="M22.5 28.3327V24.9993C22.6159 23.9554 22.3166 22.9078 21.6667 22.0827C24.1667 22.0827 26.6667 20.416 26.6667 17.4993C26.7333 16.4577 26.4417 15.4327 25.8333 14.5827C26.0667 13.6243 26.0667 12.6243 25.8333 11.666C25.8333 11.666 25 11.666 23.3333 12.916C21.1333 12.4993 18.8667 12.4993 16.6667 12.916C15 11.666 14.1667 11.666 14.1667 11.666C13.9167 12.6243 13.9167 13.6243 14.1667 14.5827C13.5599 15.4293 13.2654 16.46 13.3333 17.4993C13.3333 20.416 15.8333 22.0827 18.3333 22.0827C18.0083 22.491 17.7667 22.9577 17.625 23.4577C17.4833 23.9577 17.4417 24.4827 17.5 24.9993V28.3327" stroke="#717182" stroke-width="1.66667" stroke-linecap="round" stroke-linejoin="round"/>
<path d="M17.5001 25.0007C13.7417 26.6673 13.3334 23.334 11.6667 23.334" stroke="#717182" stroke-width="1.66667" stroke-linecap="round" stroke-linejoin="round"/>
</g>
<defs>
<clipPath id="clip0_47_54">
<rect width="20" height="20" fill="white" transform="translate(10 10)"/>
</clipPath>
</defs>
</svg>
