<svg width="40" height="40" viewBox="0 0 40 40" fill="none" xmlns="http://www.w3.org/2000/svg">
<path d="M0 20C0 8.95431 8.95431 0 20 0C31.0457 0 40 8.95431 40 20C40 31.0457 31.0457 40 20 40C8.95431 40 0 31.0457 0 20Z" fill="#ECECF0"/>
<g clip-path="url(#clip0_47_48)">
<path d="M23.3333 16.666C24.6593 16.666 25.9311 17.1928 26.8688 18.1305C27.8065 19.0682 28.3333 20.3399 28.3333 21.666V27.4993H24.9999V21.666C24.9999 21.224 24.8243 20.8001 24.5118 20.4875C24.1992 20.1749 23.7753 19.9993 23.3333 19.9993C22.8912 19.9993 22.4673 20.1749 22.1547 20.4875C21.8422 20.8001 21.6666 21.224 21.6666 21.666V27.4993H18.3333V21.666C18.3333 20.3399 18.86 19.0682 19.7977 18.1305C20.7354 17.1928 22.0072 16.666 23.3333 16.666Z" stroke="#717182" stroke-width="1.66667" stroke-linecap="round" stroke-linejoin="round"/>
<path d="M15.0001 17.5H11.6667V27.5H15.0001V17.5Z" stroke="#717182" stroke-width="1.66667" stroke-linecap="round" stroke-linejoin="round"/>
<path d="M13.3334 14.9993C14.2539 14.9993 15.0001 14.2532 15.0001 13.3327C15.0001 12.4122 14.2539 11.666 13.3334 11.666C12.4129 11.666 11.6667 12.4122 11.6667 13.3327C11.6667 14.2532 12.4129 14.9993 13.3334 14.9993Z" stroke="#717182" stroke-width="1.66667" stroke-linecap="round" stroke-linejoin="round"/>
</g>
<defs>
<clipPath id="clip0_47_48">
<rect width="20" height="20" fill="white" transform="translate(10 10)"/>
</clipPath>
</defs>
</svg>
