<svg width="16" height="16" viewBox="0 0 16 16" fill="none" xmlns="http://www.w3.org/2000/svg">
<g clip-path="url(#clip0_21_8988)">
<path d="M1.33301 6.33344C1.33302 5.59158 1.55807 4.86716 1.97843 4.25588C2.39879 3.6446 2.99469 3.17521 3.68741 2.90971C4.38014 2.6442 5.13711 2.59507 5.85835 2.7688C6.57959 2.94254 7.23116 3.33096 7.72701 3.88277C7.76193 3.92012 7.80415 3.94989 7.85106 3.97024C7.89796 3.99059 7.94855 4.0011 7.99967 4.0011C8.0508 4.0011 8.10139 3.99059 8.14829 3.97024C8.19519 3.94989 8.23742 3.92012 8.27234 3.88277C8.76663 3.32737 9.41835 2.93569 10.1408 2.75984C10.8632 2.584 11.622 2.63234 12.3163 2.89843C13.0105 3.16452 13.6073 3.63574 14.0271 4.24938C14.4469 4.86301 14.6699 5.58995 14.6663 6.33344C14.6663 7.86011 13.6663 9.00011 12.6663 10.0001L9.00501 13.5421C8.88079 13.6848 8.72763 13.7994 8.5557 13.8783C8.38378 13.9572 8.19704 13.9987 8.00787 13.9999C7.8187 14.0011 7.63144 13.962 7.45853 13.8853C7.28562 13.8085 7.13103 13.6959 7.00501 13.5548L3.33301 10.0001C2.33301 9.00011 1.33301 7.86677 1.33301 6.33344Z" stroke="#00B8DB" stroke-width="1.33333" stroke-linecap="round" stroke-linejoin="round"/>
</g>
<defs>
<clipPath id="clip0_21_8988">
<rect width="16" height="16" fill="white"/>
</clipPath>
</defs>
</svg>
