<svg width="40" height="40" viewBox="0 0 40 40" fill="none" xmlns="http://www.w3.org/2000/svg">
<path d="M0 20C0 8.95431 8.95431 0 20 0C31.0457 0 40 8.95431 40 20C40 31.0457 31.0457 40 20 40C8.95431 40 0 31.0457 0 20Z" fill="#ECECF0"/>
<g clip-path="url(#clip0_47_44)">
<path d="M28.3334 13.3327C28.3334 13.3327 27.7501 15.0827 26.6667 16.166C28.0001 24.4994 18.8334 30.5827 11.6667 25.8327C13.5001 25.916 15.3334 25.3327 16.6667 24.166C12.5001 22.916 10.4167 17.9994 12.5001 14.166C14.3334 16.3327 17.1667 17.5827 20.0001 17.4994C19.2501 13.9994 23.3334 11.9994 25.8334 14.3327C26.7501 14.3327 28.3334 13.3327 28.3334 13.3327Z" stroke="#717182" stroke-width="1.66667" stroke-linecap="round" stroke-linejoin="round"/>
</g>
<defs>
<clipPath id="clip0_47_44">
<rect width="20" height="20" fill="white" transform="translate(10 10)"/>
</clipPath>
</defs>
</svg>
