<svg width="19" height="18" viewBox="0 0 19 18" fill="none" xmlns="http://www.w3.org/2000/svg">
<path d="M18.0032 12.8598C18.0032 13.3146 17.8225 13.7507 17.501 14.0722C17.1794 14.3938 16.7433 14.5744 16.2886 14.5744H4.99607C4.54136 14.5745 4.10531 14.7553 3.78383 15.0768L1.89604 16.9646C1.81091 17.0497 1.70246 17.1077 1.58439 17.1312C1.46633 17.1547 1.34395 17.1426 1.23274 17.0965C1.12153 17.0505 1.02647 16.9725 0.959583 16.8724C0.892698 16.7723 0.856991 16.6546 0.856975 16.5343V2.5721C0.856975 2.11735 1.03762 1.68123 1.35918 1.35968C1.68073 1.03812 2.11685 0.857478 2.5716 0.857478H16.2886C16.7433 0.857478 17.1794 1.03812 17.501 1.35968C17.8225 1.68123 18.0032 2.11735 18.0032 2.5721V12.8598Z" stroke="white" stroke-width="1.66667" stroke-linecap="round" stroke-linejoin="round"/>
</svg>
