<svg width="32" height="32" viewBox="0 0 32 32" fill="none" xmlns="http://www.w3.org/2000/svg">
<path d="M16 13.333H16.0133" stroke="white" stroke-width="2.66667" stroke-linecap="round" stroke-linejoin="round"/>
<path d="M16 18.667H16.0133" stroke="white" stroke-width="2.66667" stroke-linecap="round" stroke-linejoin="round"/>
<path d="M16 8H16.0133" stroke="white" stroke-width="2.66667" stroke-linecap="round" stroke-linejoin="round"/>
<path d="M21.3335 13.333H21.3468" stroke="white" stroke-width="2.66667" stroke-linecap="round" stroke-linejoin="round"/>
<path d="M21.3335 18.667H21.3468" stroke="white" stroke-width="2.66667" stroke-linecap="round" stroke-linejoin="round"/>
<path d="M21.3335 8H21.3468" stroke="white" stroke-width="2.66667" stroke-linecap="round" stroke-linejoin="round"/>
<path d="M10.6665 13.333H10.6798" stroke="white" stroke-width="2.66667" stroke-linecap="round" stroke-linejoin="round"/>
<path d="M10.6665 18.667H10.6798" stroke="white" stroke-width="2.66667" stroke-linecap="round" stroke-linejoin="round"/>
<path d="M10.6665 8H10.6798" stroke="white" stroke-width="2.66667" stroke-linecap="round" stroke-linejoin="round"/>
<path d="M12 29.3333V25.3333C12 24.9797 12.1405 24.6406 12.3905 24.3905C12.6406 24.1405 12.9797 24 13.3333 24H18.6667C19.0203 24 19.3594 24.1405 19.6095 24.3905C19.8595 24.6406 20 24.9797 20 25.3333V29.3333" stroke="white" stroke-width="2.66667" stroke-linecap="round" stroke-linejoin="round"/>
<path d="M24.0002 2.66699H8.00016C6.5274 2.66699 5.3335 3.8609 5.3335 5.33366V26.667C5.3335 28.1397 6.5274 29.3337 8.00016 29.3337H24.0002C25.4729 29.3337 26.6668 28.1397 26.6668 26.667V5.33366C26.6668 3.8609 25.4729 2.66699 24.0002 2.66699Z" stroke="white" stroke-width="2.66667" stroke-linecap="round" stroke-linejoin="round"/>
</svg>
