<svg width="16" height="16" viewBox="0 0 16 16" fill="none" xmlns="http://www.w3.org/2000/svg">
<g clip-path="url(#clip0_1_5591)">
<path d="M8.39034 1.72404C8.14035 1.47397 7.80127 1.33345 7.44767 1.33337H2.66634C2.31272 1.33337 1.97358 1.47385 1.72353 1.7239C1.47348 1.97395 1.33301 2.31309 1.33301 2.66671V7.44804C1.33308 7.80163 1.47361 8.14072 1.72367 8.39071L7.52634 14.1934C7.82935 14.4945 8.23917 14.6635 8.66634 14.6635C9.09351 14.6635 9.50333 14.4945 9.80634 14.1934L14.193 9.80671C14.4941 9.5037 14.6631 9.09388 14.6631 8.66671C14.6631 8.23954 14.4941 7.82972 14.193 7.52671L8.39034 1.72404Z" stroke="#9810FA" stroke-width="1.33333" stroke-linecap="round" stroke-linejoin="round"/>
<path d="M5.00033 5.33329C5.18442 5.33329 5.33366 5.18405 5.33366 4.99996C5.33366 4.81586 5.18442 4.66663 5.00033 4.66663C4.81623 4.66663 4.66699 4.81586 4.66699 4.99996C4.66699 5.18405 4.81623 5.33329 5.00033 5.33329Z" fill="#9810FA" stroke="#9810FA" stroke-width="1.33333" stroke-linecap="round" stroke-linejoin="round"/>
</g>
<defs>
<clipPath id="clip0_1_5591">
<rect width="16" height="16" fill="white"/>
</clipPath>
</defs>
</svg>
