<svg width="16" height="16" viewBox="0 0 16 16" fill="none" xmlns="http://www.w3.org/2000/svg">
<path d="M3.33301 3.33336C3.33294 3.09876 3.39477 2.86829 3.51226 2.66522C3.62976 2.46216 3.79875 2.29369 4.00218 2.17683C4.2056 2.05996 4.43626 1.99885 4.67087 1.99964C4.90547 2.00044 5.13571 2.06312 5.33834 2.18136L13.3363 6.8467C13.5382 6.96382 13.7058 7.13186 13.8223 7.33403C13.9389 7.5362 14.0003 7.76543 14.0005 7.99879C14.0007 8.23215 13.9397 8.46148 13.8235 8.66385C13.7073 8.86623 13.54 9.03456 13.3383 9.15203L5.33834 13.8187C5.13571 13.9369 4.90547 13.9996 4.67087 14.0004C4.43626 14.0012 4.2056 13.9401 4.00218 13.8232C3.79875 13.7064 3.62976 13.5379 3.51226 13.3348C3.39477 13.1318 3.33294 12.9013 3.33301 12.6667V3.33336Z" stroke="white" stroke-width="1.33333" stroke-linecap="round" stroke-linejoin="round"/>
</svg>
