<svg width="28" height="28" viewBox="0 0 28 28" fill="none" xmlns="http://www.w3.org/2000/svg">
<path d="M6.99967 16.3334L8.74967 12.9501C8.93993 12.5723 9.22932 12.2533 9.58689 12.0272C9.94446 11.8012 10.3568 11.6766 10.7797 11.6668H23.333M23.333 11.6668C23.6895 11.6662 24.0413 11.7472 24.3616 11.9037C24.6818 12.0602 24.962 12.288 25.1805 12.5696C25.399 12.8512 25.5501 13.1792 25.6222 13.5283C25.6943 13.8773 25.6855 14.2383 25.5963 14.5834L23.7997 21.5834C23.6697 22.0869 23.3752 22.5326 22.9631 22.8496C22.5509 23.1667 22.0447 23.337 21.5247 23.3334H4.66634C4.0475 23.3334 3.45401 23.0876 3.01643 22.65C2.57884 22.2124 2.33301 21.619 2.33301 21.0001V5.83345C2.33301 5.21461 2.57884 4.62111 3.01643 4.18353C3.45401 3.74594 4.0475 3.50011 4.66634 3.50011H9.21634C9.60658 3.49629 9.99154 3.5904 10.336 3.77384C10.6804 3.95727 10.9734 4.22417 11.188 4.55011L12.133 5.95011C12.3455 6.27273 12.6347 6.53755 12.9748 6.72082C13.3148 6.90408 13.695 7.00005 14.0813 7.00011H20.9997C21.6185 7.00011 22.212 7.24594 22.6496 7.68353C23.0872 8.12111 23.333 8.71461 23.333 9.33345V11.6668Z" stroke="white" stroke-width="2.33333" stroke-linecap="round" stroke-linejoin="round"/>
</svg>
