<svg width="19" height="18" viewBox="0 0 19 18" fill="none" xmlns="http://www.w3.org/2000/svg">
<path d="M18.0032 12.8597C18.0032 13.3144 17.8225 13.7506 17.501 14.0721C17.1794 14.3937 16.7433 14.5743 16.2886 14.5743H4.99607C4.54136 14.5744 4.10531 14.7551 3.78383 15.0767L1.89604 16.9645C1.81091 17.0496 1.70246 17.1076 1.58439 17.131C1.46633 17.1545 1.34395 17.1425 1.23274 17.0964C1.12153 17.0503 1.02647 16.9723 0.959583 16.8723C0.892698 16.7722 0.856991 16.6545 0.856975 16.5341V2.57197C0.856975 2.11723 1.03762 1.68111 1.35918 1.35955C1.68073 1.038 2.11685 0.857352 2.5716 0.857352H16.2886C16.7433 0.857352 17.1794 1.038 17.501 1.35955C17.8225 1.68111 18.0032 2.11723 18.0032 2.57197V12.8597Z" stroke="white" stroke-width="1.66667" stroke-linecap="round" stroke-linejoin="round"/>
</svg>
