<svg width="40" height="40" viewBox="0 0 40 40" fill="none" xmlns="http://www.w3.org/2000/svg">
<path d="M0 20C0 8.95431 8.95431 0 20 0C31.0457 0 40 8.95431 40 20C40 31.0457 31.0457 40 20 40C8.95431 40 0 31.0457 0 20Z" fill="#ECECF0"/>
<g clip-path="url(#clip0_1_735)">
<path d="M22.4995 28.3337V25.0003C22.6154 23.9564 22.3161 22.9088 21.6662 22.0837C24.1662 22.0837 26.6662 20.417 26.6662 17.5003C26.7328 16.4587 26.4412 15.4337 25.8328 14.5837C26.0662 13.6253 26.0662 12.6253 25.8328 11.667C25.8328 11.667 24.9995 11.667 23.3328 12.917C21.1328 12.5003 18.8662 12.5003 16.6662 12.917C14.9995 11.667 14.1662 11.667 14.1662 11.667C13.9162 12.6253 13.9162 13.6253 14.1662 14.5837C13.5594 15.4302 13.2649 16.461 13.3328 17.5003C13.3328 20.417 15.8328 22.0837 18.3328 22.0837C18.0078 22.492 17.7662 22.9587 17.6245 23.4587C17.4828 23.9587 17.4412 24.4837 17.4995 25.0003V28.3337" stroke="#717182" stroke-width="1.66667" stroke-linecap="round" stroke-linejoin="round"/>
<path d="M17.5003 24.9997C13.742 26.6663 13.3337 23.333 11.667 23.333" stroke="#717182" stroke-width="1.66667" stroke-linecap="round" stroke-linejoin="round"/>
</g>
<defs>
<clipPath id="clip0_1_735">
<rect width="20" height="20" fill="white" transform="translate(10 10)"/>
</clipPath>
</defs>
</svg>
