<svg width="34" height="34" viewBox="0 0 34 34" fill="none" xmlns="http://www.w3.org/2000/svg">
<path d="M22.6671 28.3335V5.66654C22.6671 4.91508 22.3686 4.1944 21.8373 3.66304C21.3059 3.13168 20.5852 2.83317 19.8338 2.83317H14.167C13.4156 2.83317 12.6949 3.13168 12.1635 3.66304C11.6322 4.1944 11.3337 4.91508 11.3337 5.66654V28.3335" stroke="white" stroke-width="2.8" stroke-linecap="round" stroke-linejoin="round"/>
<path d="M28.3335 8.50049H5.66654C4.10171 8.50049 2.83317 9.76904 2.83317 11.3339V25.5007C2.83317 27.0655 4.10171 28.3341 5.66654 28.3341H28.3335C29.8983 28.3341 31.1668 27.0655 31.1668 25.5007V11.3339C31.1668 9.76904 29.8983 8.50049 28.3335 8.50049Z" stroke="white" stroke-width="2.8" stroke-linecap="round" stroke-linejoin="round"/>
</svg>
