<svg width="36" height="36" viewBox="0 0 36 36" fill="none" xmlns="http://www.w3.org/2000/svg">
<path d="M23.9903 18.3239C23.9278 19.4814 23.5314 20.5959 22.849 21.5329C22.1666 22.4698 21.2274 23.1891 20.145 23.6036C19.0625 24.0182 17.8832 24.1104 16.7495 23.869C15.6158 23.6276 14.5763 23.063 13.7566 22.2434C12.9369 21.4238 12.3722 20.3844 12.1307 19.2507C11.8892 18.117 11.9812 16.9376 12.3957 15.8552C12.8101 14.7727 13.5293 13.8334 14.4662 13.1509C15.403 12.4684 16.5175 12.0719 17.675 12.0093C17.945 11.9946 18.0863 12.3159 17.943 12.5446C17.4636 13.3116 17.2583 14.2185 17.3606 15.1172C17.463 16.016 17.8669 16.8535 18.5065 17.4931C19.1461 18.1327 19.9836 18.5366 20.8823 18.6389C21.7811 18.7413 22.6879 18.536 23.455 18.0566C23.6843 17.9133 24.005 18.0539 23.9903 18.3239Z" stroke="#0A0A0A" stroke-width="1.33333" stroke-linecap="round" stroke-linejoin="round"/>
</svg>
