<svg width="40" height="40" viewBox="0 0 40 40" fill="none" xmlns="http://www.w3.org/2000/svg">
<path d="M26.6663 35V31.6667C26.6663 29.8986 25.964 28.2029 24.7137 26.9526C23.4635 25.7024 21.7678 25 19.9997 25H9.99967C8.23156 25 6.53587 25.7024 5.28563 26.9526C4.03539 28.2029 3.33301 29.8986 3.33301 31.6667V35" stroke="white" stroke-width="3.33333" stroke-linecap="round" stroke-linejoin="round"/>
<path d="M14.9997 18.3333C18.6816 18.3333 21.6663 15.3486 21.6663 11.6667C21.6663 7.98477 18.6816 5 14.9997 5C11.3178 5 8.33301 7.98477 8.33301 11.6667C8.33301 15.3486 11.3178 18.3333 14.9997 18.3333Z" stroke="white" stroke-width="3.33333" stroke-linecap="round" stroke-linejoin="round"/>
<path d="M31.667 13.333V23.333" stroke="white" stroke-width="3.33333" stroke-linecap="round" stroke-linejoin="round"/>
<path d="M36.667 18.333H26.667" stroke="white" stroke-width="3.33333" stroke-linecap="round" stroke-linejoin="round"/>
</svg>
