<svg width="48" height="48" viewBox="0 0 48 48" fill="none" xmlns="http://www.w3.org/2000/svg">
<path d="M42.8401 21.8442C43.1981 21.6863 43.502 21.4268 43.7139 21.0978C43.9259 20.7689 44.0368 20.385 44.0327 19.9937C44.0287 19.6024 43.9099 19.2209 43.6912 18.8964C43.4724 18.5719 43.1633 18.3187 42.8021 18.1682L25.6601 10.3602C25.139 10.1225 24.5729 9.99951 24.0001 9.99951C23.4273 9.99951 22.8612 10.1225 22.3401 10.3602L5.20008 18.1602C4.84402 18.3162 4.54112 18.5725 4.32842 18.8979C4.11572 19.2232 4.00244 19.6035 4.00244 19.9922C4.00244 20.3809 4.11572 20.7612 4.32842 21.0866C4.54112 21.412 4.84402 21.6683 5.20008 21.8242L22.3401 29.6402C22.8612 29.8779 23.4273 30.0009 24.0001 30.0009C24.5729 30.0009 25.139 29.8779 25.6601 29.6402L42.8401 21.8442Z" stroke="white" stroke-width="4" stroke-linecap="round" stroke-linejoin="round"/>
<path d="M44 20V32" stroke="white" stroke-width="4" stroke-linecap="round" stroke-linejoin="round"/>
<path d="M12 25V32C12 33.5913 13.2643 35.1174 15.5147 36.2426C17.7652 37.3679 20.8174 38 24 38C27.1826 38 30.2348 37.3679 32.4853 36.2426C34.7357 35.1174 36 33.5913 36 32V25" stroke="white" stroke-width="4" stroke-linecap="round" stroke-linejoin="round"/>
</svg>
