<svg width="32" height="32" viewBox="0 0 32 32" fill="none" xmlns="http://www.w3.org/2000/svg">
<path d="M28.56 14.5625C28.7987 14.4572 29.0012 14.2842 29.1426 14.0649C29.2839 13.8456 29.3578 13.5897 29.3551 13.3288C29.3524 13.0679 29.2732 12.8136 29.1274 12.5973C28.9815 12.381 28.7755 12.2122 28.5346 12.1118L17.1066 6.90649C16.7592 6.74802 16.3818 6.66602 16 6.66602C15.6181 6.66602 15.2407 6.74802 14.8933 6.90649L3.46664 12.1065C3.22927 12.2105 3.02733 12.3813 2.88553 12.5982C2.74373 12.8152 2.66821 13.0687 2.66821 13.3278C2.66821 13.587 2.74373 13.8405 2.88553 14.0574C3.02733 14.2743 3.22927 14.4452 3.46664 14.5492L14.8933 19.7598C15.2407 19.9183 15.6181 20.0003 16 20.0003C16.3818 20.0003 16.7592 19.9183 17.1066 19.7598L28.56 14.5625Z" stroke="white" stroke-width="2.66667" stroke-linecap="round" stroke-linejoin="round"/>
<path d="M29.3333 13.333V21.333" stroke="white" stroke-width="2.66667" stroke-linecap="round" stroke-linejoin="round"/>
<path d="M8 16.667V21.3337C8 22.3945 8.84286 23.4119 10.3431 24.1621C11.8434 24.9122 13.8783 25.3337 16 25.3337C18.1217 25.3337 20.1566 24.9122 21.6569 24.1621C23.1571 23.4119 24 22.3945 24 21.3337V16.667" stroke="white" stroke-width="2.66667" stroke-linecap="round" stroke-linejoin="round"/>
</svg>
