<svg width="48" height="48" viewBox="0 0 48 48" fill="none" xmlns="http://www.w3.org/2000/svg">
<path d="M0 24C0 10.7452 10.7452 0 24 0C37.2548 0 48 10.7452 48 24C48 37.2548 37.2548 48 24 48C10.7452 48 0 37.2548 0 24Z" fill="#00C950" fill-opacity="0.2"/>
<path d="M23.017 14.8144C23.0598 14.585 23.1815 14.3779 23.3611 14.2288C23.5406 14.0797 23.7666 13.998 24 13.998C24.2333 13.998 24.4593 14.0797 24.6389 14.2288C24.8184 14.3779 24.9401 14.585 24.983 14.8144L26.034 20.3724C26.1086 20.7676 26.3006 21.1311 26.585 21.4154C26.8693 21.6998 27.2328 21.8918 27.628 21.9664L33.186 23.0174C33.4153 23.0603 33.6225 23.182 33.7716 23.3615C33.9207 23.5411 34.0023 23.7671 34.0023 24.0004C34.0023 24.2338 33.9207 24.4598 33.7716 24.6393C33.6225 24.8189 33.4153 24.9406 33.186 24.9834L27.628 26.0344C27.2328 26.1091 26.8693 26.3011 26.585 26.5855C26.3006 26.8698 26.1086 27.2333 26.034 27.6284L24.983 33.1864C24.9401 33.4158 24.8184 33.623 24.6389 33.7721C24.4593 33.9212 24.2333 34.0028 24 34.0028C23.7666 34.0028 23.5406 33.9212 23.3611 33.7721C23.1815 33.623 23.0598 33.4158 23.017 33.1864L21.966 27.6284C21.8913 27.2333 21.6993 26.8698 21.4149 26.5855C21.1306 26.3011 20.7671 26.1091 20.372 26.0344L14.814 24.9834C14.5846 24.9406 14.3774 24.8189 14.2283 24.6393C14.0792 24.4598 13.9976 24.2338 13.9976 24.0004C13.9976 23.7671 14.0792 23.5411 14.2283 23.3615C14.3774 23.182 14.5846 23.0603 14.814 23.0174L20.372 21.9664C20.7671 21.8918 21.1306 21.6998 21.4149 21.4154C21.6993 21.1311 21.8913 20.7676 21.966 20.3724L23.017 14.8144Z" stroke="#00C950" stroke-width="2" stroke-linecap="round" stroke-linejoin="round"/>
<path d="M32 14V18" stroke="#00C950" stroke-width="2" stroke-linecap="round" stroke-linejoin="round"/>
<path d="M34 16H30" stroke="#00C950" stroke-width="2" stroke-linecap="round" stroke-linejoin="round"/>
<path d="M16 34C17.1046 34 18 33.1046 18 32C18 30.8954 17.1046 30 16 30C14.8954 30 14 30.8954 14 32C14 33.1046 14.8954 34 16 34Z" stroke="#00C950" stroke-width="2" stroke-linecap="round" stroke-linejoin="round"/>
</svg>
